<?xml version="1.0" ?><svg data-name="Layer 1" id="Layer_1" viewBox="0 0 300 300" xmlns="http://www.w3.org/2000/svg"><title/><path d="M149.2,67.11c-17.49,6.24-35,12.34-52.48,18.72-5.2,1.9-7.47,8.85-10.14,13.38L68.47,130c-1.23,2.09-3.1,4.39-3.93,6.68s.2,5.17.62,7.5l6.13,34.07L73.76,192c.35,1.94.54,3.06,2,4.47,6.88,6.86,15.37,12.64,22.87,18.81l13.91,11.44c2.11,1.74,4.21,3.92,6.53,5.37,2.08,1.3,4.32.94,6.74.94h49c2.29,0,4.22.3,6.18-.94,2.53-1.59,4.81-4,7.11-5.85l27.91-23c2.74-2.25,5.93-4.36,8.4-6.91,1.4-1.44,1.53-2.65,1.89-4.61L232.18,159,235,143.54c.39-2.18,1.31-4.79.51-6.91-.94-2.52-2.94-5-4.3-7.3l-8.58-14.56c-5.07-8.61-9.69-17.83-15.36-26.07a7.23,7.23,0,0,0-4.13-2.94c-4.07-1.47-8.15-2.91-12.23-4.36L157.41,69.47l-6.61-2.36c-3.64-1.3-5.21,4.5-1.6,5.79l51.3,18.3c.42.15,2.21,1.11,2.62.93-1.16.5-2-2.57-.9-.12,1.52,3.41,3.92,6.66,5.82,9.87l17.58,29.85c.69,1.16,3.2,7.33,4.55,7.72-.35-.1.42-3.1-.33-1.14a24.77,24.77,0,0,0-.76,4.24l-6,33.62-2.43,13.53a10.57,10.57,0,0,0-.54,3c-.08-.43,1.49-1.24-.11-.36-3.15,1.73-6.06,5-8.83,7.26l-13.55,11.14-13.12,10.79-4.65,3.82c-.63.52-2.55,1.57-2.85,2.34-.1.24,2.82-.15,1.06-.65-1.22-.35-3.08,0-4.34,0h-47.9a15.63,15.63,0,0,0-3.76,0c-1.78.51,1.48,1.46,1,.59-1.28-2.25-5.45-4.49-7.42-6.1L88.24,199c-2.51-2.06-5.28-5.26-8.19-6.73-1.58-.8.09-.72-.09.44.15-.93-.43-2.38-.59-3.3l-5.76-32-2.67-14.87a24.79,24.79,0,0,0-.74-4.1c-.81-2.18,0,.81-.31.94,1.67-.78,3.79-6.44,4.7-8l8.51-14.44,9.09-15.44c1.8-3.05,4.58-6.43,5.76-9.78.77-2.18-.32.88-1.06.39.28.18,2.55-.91,2.84-1l12.68-4.52L144.5,75.14l6.3-2.25C154.41,71.6,152.85,65.81,149.2,67.11Z"/><path d="M149.2,47.38c-21.48,7.82-43,15.51-64.44,23.46a7.49,7.49,0,0,0-4.42,3.66c-2.59,4.32-5,8.74-7.56,13.1l-22,38.18c-1.43,2.48-3.63,5.24-4.59,8s.42,6.4.89,9.08L54.47,185l3,17c.41,2.34.53,3.68,2.23,5.36,8.42,8.36,18.51,15.53,27.59,23.15l16.71,14c2.76,2.32,5.52,5.27,8.58,7.2,2.31,1.45,5,1,7.64,1h60.09c2.66,0,4.94.4,7.19-1.07,3.23-2.1,6.13-5.14,9.07-7.61L230,216c3.43-2.88,7.31-5.58,10.46-8.77,1.67-1.69,1.7-3.34,2.11-5.66L249.76,161,253,142.51c.46-2.63,1.76-6.2.83-8.8-1-2.93-3.39-5.88-4.94-8.55l-10.65-18.45C232,95.93,226,85,219.57,74.34a7.65,7.65,0,0,0-4.66-3.63L200,65.3l-41.25-15-8-2.91c-3.63-1.32-5.2,4.47-1.6,5.79l63.36,23.06c.3.11,2.46,1.13,2.67,1-.74.58-2.6-2.87-.67.48L222,90.63l21.33,36.94c.52.91,4.24,9,5.23,9.05-1.2,0,.34-3.56-.47-.75a55.16,55.16,0,0,0-1,5.67l-7.22,41-3,17c-.19,1.06-.83,2.73-.67,3.81,0,.27,1.53-1.15-.18-.14-3.78,2.22-7.23,6.07-10.57,8.87l-17,14.28-16.12,13.53-5.58,4.68c-.93.78-2.76,1.77-3.36,2.82-.48.84,2.9-.16.89-.59-1.54-.33-3.52,0-5.09,0h-59a23.45,23.45,0,0,0-4.52,0c-2,.43,1.63,1.81.74.46-2-3-6.65-5.58-9.39-7.88L74.2,211.73c-3.24-2.72-6.6-6.45-10.26-8.61-.3-.18-.53-.48-.82-.69.84.6.57,1.84.65.91.11-1.25-.51-2.92-.73-4.15l-7-39.8-3.26-18.48a48.68,48.68,0,0,0-.89-5.05c-.76-2.62.36.35-.41.64.59-.23,1.47-2.54,1.77-3.06L57,126.92l10.41-18c6-10.43,12.86-20.72,18.2-31.52,1.52-3.08.17.63-.84-.17.22.17,2.85-1,3.08-1.12l15.38-5.6,39.57-14.4,8-2.91C154.4,51.86,152.84,46.06,149.2,47.38Z"/></svg>