<?xml version="1.0" encoding="utf-8"?>
<!-- Svg Vector Icons : http://www.onlinewebfonts.com/icon -->
<!DOCTYPE svg PUBLIC "-//W3C//DTD SVG 1.1//EN" "http://www.w3.org/Graphics/SVG/1.1/DTD/svg11.dtd">
<svg version="1.1" xmlns="http://www.w3.org/2000/svg" xmlns:xlink="http://www.w3.org/1999/xlink" x="0px" y="0px" viewBox="0 0 1000 1000" enable-background="new 0 0 1000 1000" xml:space="preserve">
<metadata> Svg Vector Icons : http://www.onlinewebfonts.com/icon </metadata>
<g><g transform="translate(0.000000,511.000000) scale(0.100000,-0.100000)"><path d="M3025.1,3949.9c-1067.5-514.6-1949.3-950.1-1957.8-965c-8.5-17.1-228.4-960.8-486.8-2100.9C320-254,104.3-1202,100.1-1219.1c-6.4-19.2,542.3-725.9,1351.5-1740.1l1362.2-1708h2184.2h2186.3l1362.1,1708c822,1029.1,1360,1720.8,1353.6,1740.1c-15,51.3-922.3,4037.4-939.4,4124.9c-8.5,44.8-25.6,87.5-40.6,98.2c-44.8,36.3-3896.5,1883.1-3924.2,1883.1C4980.8,4885,4094.7,4464.4,3025.1,3949.9z"/></g></g>
</svg>