<?xml version="1.0" encoding="utf-8"?>
<!-- Svg Vector Icons : http://www.onlinewebfonts.com/icon -->
<!DOCTYPE svg PUBLIC "-//W3C//DTD SVG 1.1//EN" "http://www.w3.org/Graphics/SVG/1.1/DTD/svg11.dtd">
<svg version="1.1" xmlns="http://www.w3.org/2000/svg" xmlns:xlink="http://www.w3.org/1999/xlink" x="0px" y="0px" viewBox="0 0 1000 1000" enable-background="new 0 0 1000 1000" xml:space="preserve">
<metadata> Svg Vector Icons : http://www.onlinewebfonts.com/icon </metadata>
<g><g transform="translate(0.000000,511.000000) scale(0.100000,-0.100000)"><path d="M3041.6,3946.6c-1077.7-519.3-1962.4-946.3-1964.5-948.4c-2.1-2.1-223.7-960.7-490.6-2130.8L100-1259.2l1361-1707.9l1361-1705.8h2188.2h2186.2l1344.6,1685.3c739,927.9,1350.7,1697.6,1358.9,1712c12.3,18.5-936.1,4249.2-956.6,4273.9c-4.1,6.2-3933.1,1894.7-3937.2,1894.7C5002,4890.9,4117.3,4466,3041.6,3946.6z M6814.6,3638.7c989.4-476.2,1806.4-872.4,1814.6-880.6c22.6-20.5,901.2-3875.6,892.9-3922.8c-4.1-22.6-564.5-741.1-1248.1-1599.1l-1241.9-1558h-2022l-2022-2.1L1818.2-2854.2c-644.6,806.7-1209.1,1517-1254.2,1578.6l-84.2,108.8L566-789.1c49.3,207.3,246.3,1073.6,439.3,1925.5c195,851.9,359.2,1566.3,367.4,1588.8c10.3,24.6,624,330.5,1820.8,907.3c993.5,478.3,1810.5,870.4,1814.6,870.4C5012.3,4502.9,5825.2,4112.9,6814.6,3638.7z"/></g></g>
</svg>